<?xml version="1.0" encoding="utf-8"?>
<!-- Generator: Adobe Illustrator 23.0.6, SVG Export Plug-In . SVG Version: 6.00 Build 0)  -->
<svg version="1.1" id="Layer_1" xmlns="http://www.w3.org/2000/svg" xmlns:xlink="http://www.w3.org/1999/xlink" x="0px" y="0px"
	 viewBox="0 0 14.2 14.2" style="enable-background:new 0 0 14.2 14.2;" xml:space="preserve">
<style type="text/css">
	.st0{display:none;}
	.st1{display:inline;}
	
		.st2{clip-path:url(#SVGID_2_);fill:none;stroke:#F39576;stroke-width:0.5;stroke-linecap:round;stroke-linejoin:round;stroke-miterlimit:10;}
	
		.st3{clip-path:url(#SVGID_4_);fill:none;stroke:#F39576;stroke-width:0.5;stroke-linecap:round;stroke-linejoin:round;stroke-miterlimit:10;}
	.st4{clip-path:url(#SVGID_6_);fill:none;stroke:#9BC7BD;stroke-width:0.5;stroke-linecap:round;stroke-linejoin:round;}
	.st5{clip-path:url(#SVGID_8_);fill:none;stroke:#92B6CC;stroke-width:0.5;stroke-linecap:round;stroke-linejoin:round;}
	.st6{fill:#669FBA;}
</style>
<g id="Layer_3" class="st0">
	<g class="st1">
		<g>
			<defs>
				<rect id="SVGID_1_" x="0.7" y="0.6" width="12.2" height="13.3"/>
			</defs>
			<clipPath id="SVGID_2_">
				<use xlink:href="#SVGID_1_"  style="overflow:visible;"/>
			</clipPath>
			<path class="st2" d="M10.9,3.2v2.5H2.7V2.8h0.4 M6.8,7.1v3c0,0.6,0.6,1.1,1.5,1.1h4.3 M12.7,8v5.6 M5.5,5.7C5.5,6.4,6.1,7,6.8,7
				s1.3-0.6,1.3-1.3 M2.6,5.2C1.7,5.2,1,4.5,1,3.6c0-0.5,0.2-0.9,0.5-1.2S2.3,2,2.3,2"/>
		</g>
		<g>
			<defs>
				<rect id="SVGID_3_" x="0.7" y="0.6" width="12.2" height="13.3"/>
			</defs>
			<clipPath id="SVGID_4_">
				<use xlink:href="#SVGID_3_"  style="overflow:visible;"/>
			</clipPath>
			<path class="st3" d="M11.4,3.1V1.4c0-0.3-0.2-0.6-0.9-0.6H1l2.6,2.3H11.4z"/>
		</g>
	</g>
</g>
<g class="st0">
	<g class="st1">
		<g>
			<defs>
				<rect id="SVGID_5_" x="2.4" y="0.6" width="9.1" height="13.3"/>
			</defs>
			<clipPath id="SVGID_6_">
				<use xlink:href="#SVGID_5_"  style="overflow:visible;"/>
			</clipPath>
			<path class="st4" d="M10.3,7.6H3.5c-0.5,0-0.9-0.4-0.9-1V3c0-0.5,0.4-1,0.9-1h6.8c0.5,0,0.9,0.4,0.9,1v3.5
				C11.2,7.1,10.8,7.6,10.3,7.6z M6.9,6.5c0.9,0,1.7-0.8,1.7-1.7S7.8,3.1,6.9,3.1S5.2,3.9,5.2,4.8S6,6.5,6.9,6.5z M3.9,1.8v-1h2.6V2
				 M11.1,13.6L6.9,7.7 M2.6,13.6l4.3-5.9 M6.9,7.6v6"/>
		</g>
	</g>
</g>
<g id="Layer_4" class="st0">
	<g class="st1">
		<g>
			<defs>
				<rect id="SVGID_7_" x="0.6" y="0.5" width="12.9" height="13.3"/>
			</defs>
			<clipPath id="SVGID_8_">
				<use xlink:href="#SVGID_7_"  style="overflow:visible;"/>
			</clipPath>
			<path class="st5" d="M9.3,12.5H7.8v-1h1.5V12.5z M13.3,5.3c-1.5-0.5-3.7-0.9-6.2-0.9S2.4,4.7,0.8,5.3 M13.3,3.4
				c-1.5-0.5-3.7-0.9-6.2-0.9S2.4,2.8,0.8,3.4 M10.3,1v5.4 M3.8,1v5.5 M7.1,0.7v5.5 M7.1,0.7C4.6,0.7,2.4,1,0.8,1.6v5.5
				c1.5-0.5,3.8-0.9,6.3-0.9s4.7,0.3,6.2,0.9V1.6C11.8,1.1,9.6,0.7,7.1,0.7z M9.4,13.6H4.8c-0.5,0-0.8-0.4-0.8-0.9v-1.5
				c0-0.5,0.4-0.9,0.8-0.9h4.6c0.5,0,0.8,0.4,0.8,0.9v1.5C10.3,13.2,9.9,13.6,9.4,13.6z M5.8,10.2V8.4h2.7v1.9"/>
		</g>
	</g>
</g>
<g id="Layer_6">
	<g>
		<path class="st6" d="M7.1,13.8c-0.1,0-0.2-0.1-0.2-0.2V8.4l-4.2,5.3c-0.1,0.1-0.2,0.1-0.4,0c-0.1-0.1-0.1-0.2,0-0.4l4.4-5.6H2.5
			c-0.1,0-0.2-0.1-0.2-0.2V3.7c0-0.1,0.1-0.2,0.2-0.2h1.3c0.1-1.7,1.6-3,3.4-3s3.2,1.3,3.4,3h1.2c0.1,0,0.2,0.1,0.2,0.2v3.8
			c0,0.1-0.1,0.2-0.2,0.2H7.6l4.2,5.6c0.1,0.1,0.1,0.3,0,0.4c-0.1,0.1-0.3,0.1-0.4,0l-4-5.4v5.2C7.4,13.7,7.2,13.8,7.1,13.8z
			 M2.7,7.3h8.8V4h-1c-0.1,1.7-1.6,3-3.4,3S3.9,5.7,3.8,4h-1L2.7,7.3L2.7,7.3z M7.1,1C5.6,1,4.3,2.2,4.3,3.7s1.3,2.7,2.9,2.7
			S10,5.2,10,3.7S8.7,1,7.1,1z M7.1,5.6c-1.1,0-2-0.8-2-1.9s0.9-1.9,2-1.9s2,0.8,2,1.9S8.2,5.6,7.1,5.6z M7.1,2.4
			C6.3,2.4,5.7,3,5.7,3.7c0,0.8,0.7,1.4,1.5,1.4s1.5-0.6,1.5-1.4C8.6,3,7.9,2.4,7.1,2.4z"/>
	</g>
</g>
</svg>
