<?xml version="1.0" encoding="utf-8"?>
<!-- Generator: Adobe Illustrator 23.0.6, SVG Export Plug-In . SVG Version: 6.00 Build 0)  -->
<svg version="1.1" xmlns="http://www.w3.org/2000/svg" xmlns:xlink="http://www.w3.org/1999/xlink" x="0px" y="0px"
	 viewBox="0 0 14.2 14.2" style="enable-background:new 0 0 14.2 14.2;" xml:space="preserve">
<style type="text/css">
	.st0{fill:#F5A26C;}
	.st1{display:none;}
	.st2{display:inline;}
	.st3{fill:#B3D4C9;}
	.st4{fill:#A5C8DC;}
	.st5{fill:#669FBA;}
</style>
<g id="Layer_3">
	<g>
		<path class="st0" d="M12.7,13.9c-0.1,0-0.2-0.1-0.2-0.2v-2.3H8.3c-1,0-1.8-0.5-1.8-1.3V7.3C5.9,7.1,5.3,6.6,5.2,5.9H2.7
			c-0.1,0-0.2-0.1-0.2-0.2V5.5c-1-0.1-1.7-0.9-1.7-1.9c0-0.5,0.2-1,0.6-1.3c0.3-0.4,0.9-0.5,0.9-0.5c0.1,0,0.3,0.1,0.3,0.2
			c0,0.1-0.1,0.3-0.2,0.3c0,0-0.4,0.1-0.6,0.3c-0.2,0.2-0.4,0.5-0.4,1c0,0.7,0.5,1.3,1.2,1.4V2.8c0-0.1,0.1-0.2,0.2-0.2h0.4
			c0.1,0,0.2,0.1,0.2,0.2S3.3,3,3.1,3H3v2.4h7.7V3.2c0-0.1,0.1-0.2,0.2-0.2s0.2,0.1,0.2,0.2v2.5c0,0.1-0.1,0.2-0.2,0.2H8.4
			C8.3,6.6,7.7,7.1,7,7.3V10c0,0.5,0.5,0.8,1.3,0.8h4.2V8c0-0.1,0.1-0.2,0.2-0.2S13,7.9,13,8v5.6C13,13.7,12.9,13.9,12.7,13.9z
			 M5.7,5.9c0.1,0.5,0.5,0.9,1.1,0.9c0.5,0,1-0.4,1.1-0.9H5.7z"/>
		<path class="st0" d="M11.4,3.3H3.6c-0.1,0-0.1,0-0.2-0.1L0.8,1C0.7,0.9,0.7,0.8,0.7,0.7c0-0.1,0.1-0.2,0.2-0.2h9.5
			c1,0,1.2,0.5,1.2,0.8v1.7C11.7,3.2,11.5,3.3,11.4,3.3z M3.7,2.8h7.5V1.4c0-0.1,0-0.3-0.7-0.3H1.6L3.7,2.8z"/>
	</g>
</g>
<g id="Layer_2" class="st1">
	<g class="st2">
		<path class="st3" d="M6.9,13.9c-0.1,0-0.2-0.1-0.2-0.2V8.4l-3.8,5.3c-0.1,0.1-0.2,0.1-0.3,0.1c-0.1-0.1-0.1-0.2-0.1-0.3l4.1-5.6
			H3.5c-0.7,0-1.2-0.6-1.2-1.2V3c0-0.7,0.5-1.2,1.2-1.2h0.2c0,0,0,0,0,0v-1c0-0.1,0.1-0.2,0.2-0.2h2.6c0.1,0,0.2,0.1,0.2,0.2v1h3.5
			c0.7,0,1.2,0.6,1.2,1.2v3.5c0,0.7-0.5,1.2-1.2,1.2h-3l4,5.6c0.1,0.1,0.1,0.3-0.1,0.3c-0.1,0.1-0.3,0.1-0.3-0.1L7.1,8.4v5.2
			C7.1,13.8,7,13.9,6.9,13.9z M3.5,2.3C3.2,2.3,2.8,2.6,2.8,3v3.5c0,0.4,0.3,0.7,0.7,0.7h6.8C10.7,7.3,11,7,11,6.6V3
			c0-0.4-0.3-0.7-0.7-0.7H6.6c0,0-0.1,0-0.1,0H3.5z M4.2,1.8h2.1V1H4.2V1.8C4.2,1.8,4.2,1.8,4.2,1.8z M6.9,6.8C5.9,6.8,5,5.9,5,4.8
			s0.9-2,1.9-2s1.9,0.9,1.9,2S8,6.8,6.9,6.8z M6.9,3.3C6.1,3.3,5.5,4,5.5,4.8s0.6,1.5,1.4,1.5s1.4-0.7,1.4-1.5S7.7,3.3,6.9,3.3z"/>
	</g>
	<text transform="matrix(1 0 0 1 17.8607 9.8362)" class="st2" style="font-family:'MyriadPro-Regular'; font-size:1px;">179, 212, 201</text>
</g>
<g id="Layer_4" class="st1">
	<g class="st2">
		<path class="st4" d="M9.4,13.8H4.8c-0.6,0-1.1-0.5-1.1-1.1v-1.5c0-0.6,0.5-1.1,1.1-1.1h0.7V8.4c0-0.1,0.1-0.2,0.2-0.2h2.7
			c0.1,0,0.2,0.1,0.2,0.2v1.8h0.7c0.6,0,1.1,0.5,1.1,1.1v1.5C10.5,13.3,10,13.8,9.4,13.8z M4.8,10.6c-0.3,0-0.6,0.3-0.6,0.6v1.5
			c0,0.3,0.3,0.6,0.6,0.6h4.6c0.3,0,0.6-0.3,0.6-0.6v-1.5c0-0.3-0.3-0.6-0.6-0.6H4.8z M6,10.1h2.2V8.6H6V10.1z M9.3,12.8H7.8
			c-0.1,0-0.2-0.1-0.2-0.2v-1c0-0.1,0.1-0.2,0.2-0.2h1.5c0.1,0,0.2,0.1,0.2,0.2v1C9.6,12.7,9.5,12.8,9.3,12.8z M8,12.3h1v-0.5H8
			V12.3z M0.9,7.4c-0.1,0-0.1,0-0.1,0c-0.1,0-0.1-0.1-0.1-0.2V5.3c0,0,0,0,0,0V3.4c0,0,0,0,0,0V1.6c0-0.1,0.1-0.2,0.2-0.2
			c0.8-0.3,1.9-0.5,3-0.7c0,0,0,0,0,0c1-0.1,2.2-0.2,3.3-0.2c2.4,0,4.7,0.3,6.3,0.9c0.1,0,0.2,0.1,0.2,0.2v1.8c0,0,0,0,0,0v1.9
			c0,0,0,0,0,0v1.8c0,0.1,0,0.2-0.1,0.2c-0.1,0-0.2,0.1-0.2,0c-1.6-0.5-3.8-0.9-6.1-0.9C6,6.5,4.9,6.5,3.9,6.7c0,0,0,0,0,0
			C2.8,6.8,1.8,7.1,0.9,7.4C0.9,7.4,0.9,7.4,0.9,7.4z M1.1,5.5v1.3c0.7-0.2,1.6-0.4,2.5-0.5V4.9C2.7,5.1,1.8,5.2,1.1,5.5z M10.6,6.2
			c0.9,0.1,1.8,0.3,2.5,0.5V5.5c-0.7-0.2-1.6-0.4-2.5-0.6V6.2z M4.1,4.9v1.3C5,6,5.9,6,6.9,6V4.7C5.9,4.7,5,4.7,4.1,4.9z M7.4,6
			C8.3,6,9.2,6,10.1,6.1V4.8C9.2,4.7,8.3,4.7,7.4,4.7V6z M1.1,3.6V5c0.7-0.2,1.6-0.4,2.5-0.5V3C2.7,3.2,1.8,3.3,1.1,3.6z M10.6,4.4
			c0.9,0.1,1.8,0.3,2.5,0.5V3.6c-0.7-0.2-1.6-0.4-2.5-0.6V4.4z M4.1,3v1.4C5,4.2,5.9,4.2,6.9,4.2V2.8C5.9,2.8,5,2.8,4.1,3z M7.4,4.2
			c0.9,0,1.8,0.1,2.7,0.2V2.9C9.2,2.8,8.3,2.8,7.4,2.8V4.2z M1.1,1.8v1.3c0.7-0.2,1.6-0.4,2.5-0.5V1.2C2.7,1.4,1.8,1.6,1.1,1.8z
			 M10.6,2.5c0.9,0.1,1.8,0.3,2.5,0.5V1.8c-0.7-0.2-1.6-0.4-2.5-0.6V2.5z M4.1,1.2v1.3C5,2.3,5.9,2.3,6.9,2.3V1C5.9,1,5,1.1,4.1,1.2
			z M7.4,2.3c0.9,0,1.8,0.1,2.7,0.2V1.2C9.2,1.1,8.3,1,7.4,1V2.3z"/>
	</g>
	<text transform="matrix(1 0 0 1 16.9098 13.845)" class="st2" style="font-family:'MyriadPro-Regular'; font-size:1px;">165, 200, 220</text>
</g>
<g id="Layer_6" class="st1">
	<g class="st2">
		<path class="st5" d="M7.1,13.8c-0.1,0-0.2-0.1-0.2-0.2V8.4l-4.2,5.3c-0.1,0.1-0.2,0.1-0.4,0c-0.1-0.1-0.1-0.2,0-0.4l4.4-5.6H2.5
			c-0.1,0-0.2-0.1-0.2-0.2V3.7c0-0.1,0.1-0.2,0.2-0.2h1.3c0.1-1.7,1.6-3,3.4-3s3.2,1.3,3.4,3h1.2c0.1,0,0.2,0.1,0.2,0.2v3.8
			c0,0.1-0.1,0.2-0.2,0.2H7.6l4.2,5.6c0.1,0.1,0.1,0.3,0,0.4c-0.1,0.1-0.3,0.1-0.4,0l-4-5.4v5.2C7.4,13.7,7.2,13.8,7.1,13.8z
			 M2.7,7.3h8.8V4h-1c-0.1,1.7-1.6,3-3.4,3S3.9,5.7,3.8,4h-1V7.3z M7.1,1C5.6,1,4.3,2.2,4.3,3.7c0,1.5,1.3,2.7,2.9,2.7
			S10,5.2,10,3.7C10,2.2,8.7,1,7.1,1z M7.1,5.6c-1.1,0-2-0.8-2-1.9s0.9-1.9,2-1.9c1.1,0,2,0.8,2,1.9S8.2,5.6,7.1,5.6z M7.1,2.4
			C6.3,2.4,5.7,3,5.7,3.7c0,0.8,0.7,1.4,1.5,1.4c0.8,0,1.5-0.6,1.5-1.4C8.6,3,7.9,2.4,7.1,2.4z"/>
	</g>
	<text transform="matrix(1 0 0 1 17.7903 9.0618)" class="st2" style="font-family:'MyriadPro-Regular'; font-size:1px;">102, 159, 186WEB:</text>
</g>
</svg>
